<svg width="18" height="18" viewBox="0 0 18 18" fill="none" xmlns="http://www.w3.org/2000/svg">
<path d="M17.6286 0.371433C17.8072 0.550027 17.8939 0.785709 17.8887 1.01974V6.33331C17.8887 6.82423 17.4907 7.2222 16.9998 7.2222C16.5089 7.2222 16.1109 6.82423 16.1109 6.33331V3.14616L11.4063 7.85073C11.0592 8.19787 10.4964 8.19787 10.1493 7.85073C9.80213 7.5036 9.80213 6.94079 10.1493 6.59366L14.8541 1.88886H11.6665C11.1756 1.88886 10.7776 1.49089 10.7776 0.999973C10.7776 0.509053 11.1756 0.111084 11.6665 0.111084H16.9997C17.0112 0.111081 17.0227 0.111298 17.0342 0.111735C17.2501 0.119983 17.4637 0.206549 17.6286 0.371433Z" fill="white"/>
<path d="M1.88886 11.6667C1.88886 11.1758 1.49089 10.7778 0.999973 10.7778C0.509053 10.7778 0.111084 11.1758 0.111084 11.6667V16.9997C0.111084 17.1252 0.137074 17.2449 0.183964 17.3531C0.220276 17.4371 0.270158 17.5166 0.333608 17.5884C0.358579 17.6166 0.38532 17.6433 0.413657 17.6682C0.480541 17.727 0.554147 17.774 0.63179 17.8093C0.743973 17.8605 0.868647 17.8889 0.999973 17.8889H6.33331C6.82423 17.8889 7.2222 17.491 7.2222 17.0001C7.2222 16.5091 6.82423 16.1112 6.33331 16.1112H3.14591L7.85073 11.4063C8.19787 11.0592 8.19787 10.4964 7.85073 10.1493C7.5036 9.80213 6.94079 9.80213 6.59366 10.1493L1.88886 14.8541V11.6667Z" fill="white"/>
</svg>
