<svg width="16" height="16" viewBox="0 0 16 16" fill="none" xmlns="http://www.w3.org/2000/svg">
<path d="M15.0002 0C15.5525 0 16.0003 0.447715 16.0003 1V6.33333C16.0003 6.88562 15.5526 7.33333 15.0003 7.33333C14.448 7.33333 14.0003 6.88562 14.0003 6.33333V3.41389L8.70711 8.70711C8.31658 9.09763 7.68342 9.09763 7.29289 8.70711C6.90237 8.31658 6.90237 7.68342 7.29289 7.29289L12.5858 2H9.66699C9.11471 2 8.66699 1.55228 8.66699 1C8.66699 0.447715 9.11471 0 9.66699 0H15.0002C15.0001 0 15.0003 0 15.0002 0Z" fill="#575757"/>
<path d="M2.77778 2.66675C2.5715 2.66675 2.37367 2.74869 2.22781 2.89455C2.08194 3.04042 2 3.23825 2 3.44453V13.2223C2 13.4286 2.08194 13.6264 2.22781 13.7723C2.37367 13.9181 2.5715 14.0001 2.77778 14.0001H12.5556C12.7618 14.0001 12.9597 13.9181 13.1055 13.7723C13.2514 13.6264 13.3333 13.4286 13.3333 13.2223V10.9998C13.3333 10.4475 13.781 9.99976 14.3333 9.99976C14.8856 9.99976 15.3333 10.4475 15.3333 10.9998V13.2223C15.3333 13.959 15.0407 14.6656 14.5197 15.1865C13.9988 15.7074 13.2923 16.0001 12.5556 16.0001H2.77778C2.04107 16.0001 1.33453 15.7074 0.813592 15.1865C0.292658 14.6656 0 13.959 0 13.2223V3.44453C0 2.70781 0.292658 2.00127 0.813592 1.48034C1.33453 0.959406 2.04107 0.666748 2.77778 0.666748H5C5.55228 0.666748 6 1.11446 6 1.66675C6 2.21903 5.55228 2.66675 5 2.66675H2.77778Z" fill="#575757"/>
</svg>
